<svg width="68" height="62" xmlns="http://www.w3.org/2000/svg" xmlns:xlink="http://www.w3.org/1999/xlink" xml:space="preserve" overflow="hidden"><g transform="translate(-181 -420)"><path d="M39.8654 52.799 27.7154 52.799C26.5917 52.799 25.6808 53.7099 25.6808 54.8335 25.6808 55.9572 26.5917 56.8681 27.7154 56.8681L39.8654 56.8681C40.989 56.8681 41.8999 55.9572 41.8999 54.8335 41.8999 53.7099 40.989 52.799 39.8654 52.799Z" stroke="#0A6E4D" stroke-width="0.705944" fill="#0A6E4D" transform="matrix(1.00338 0 0 1 181 417.752)"/><path d="M33.7907 63.7666C36.098 63.7663 38.0171 61.992 38.198 59.6918L29.3828 59.6918C29.5638 61.9922 31.4833 63.7666 33.7907 63.7666Z" stroke="#0A6E4D" stroke-width="0.705944" fill="#0A6E4D" transform="matrix(1.00338 0 0 1 181 417.752)"/><path d="M51.4203 31.3962 51.4203 30.7862C51.2443 21.1566 43.4217 13.424 33.7907 13.3593L33.7907 13.3593C24.159 13.4232 16.3354 21.156 16.1591 30.7862L16.1591 31.3962C16.2249 33.4847 16.6398 35.5476 17.3867 37.4991 18.1014 39.3407 19.1392 41.04 20.4512 42.5169 22.065 44.2818 23.8348 47.7042 24.581 49.2234 24.8097 49.6844 25.2799 49.9759 25.7945 49.9759L41.7849 49.9759C42.2996 49.9757 42.7699 49.6842 42.9991 49.2234 43.7446 47.7049 45.5144 44.2818 47.1282 42.5169 48.4401 41.04 49.478 39.3407 50.1926 37.4991 50.9393 35.5474 51.3541 33.4847 51.4203 31.3962ZM47.3519 31.3256C47.2906 32.9509 46.9625 34.555 46.3806 36.0738 45.8426 37.4425 45.0666 38.7052 44.0883 39.8033 42.5341 41.6768 41.203 43.7246 40.1216 45.9055L27.4556 45.9055C26.3745 43.7244 25.0433 41.6766 23.4889 39.8033 22.5106 38.7053 21.7348 37.4426 21.1974 36.0738 20.6158 34.5554 20.2881 32.9517 20.2274 31.327L20.2274 30.8187C20.3645 23.4141 26.3835 17.4709 33.7893 17.4277L33.7893 17.4277C41.1957 17.4705 47.215 23.4149 47.3505 30.8201Z" stroke="#0A6E4D" stroke-width="0.705944" fill="#0A6E4D" transform="matrix(1.00338 0 0 1 181 417.752)"/><path d="M33.9291 10.5892C34.7089 10.5892 35.341 9.95706 35.341 9.17728L35.341 4.23567C35.341 3.4559 34.7089 2.82378 33.9291 2.82378 33.1493 2.82378 32.5172 3.4559 32.5172 4.23567L32.5172 9.17728C32.5172 9.95706 33.1493 10.5892 33.9291 10.5892Z" stroke="#0A6E4D" stroke-width="0.705944" fill="#0A6E4D" transform="matrix(1.00338 0 0 1 181 417.752)"/><path d="M17.1728 16.8015C17.7145 17.3624 18.6083 17.3779 19.1692 16.8362 19.7301 16.2945 19.7456 15.4007 19.2039 14.8398 19.1926 14.828 19.181 14.8164 19.1692 14.8051L15.672 11.3078C15.1111 10.7661 14.2173 10.7816 13.6756 11.3426 13.1471 11.8897 13.1471 12.7571 13.6756 13.3042Z" stroke="#0A6E4D" stroke-width="0.705944" fill="#0A6E4D" transform="matrix(1.00338 0 0 1 181 417.752)"/><path d="M49.7063 17.4799C50.0807 17.4798 50.4397 17.331 50.7045 17.0662L54.1982 13.5718C54.7286 13.0002 54.6951 12.1068 54.1234 11.5765 53.5814 11.0736 52.7432 11.074 52.2018 11.5775L48.7102 15.0698C48.1589 15.6213 48.159 16.5152 48.7104 17.0665 48.9752 17.3312 49.3341 17.4798 49.7084 17.4799Z" stroke="#0A6E4D" stroke-width="0.705944" fill="#0A6E4D" transform="matrix(1.00338 0 0 1 181 417.752)"/><path d="M12.0011 29.2967 7.05944 29.2967C6.27968 29.2967 5.64756 29.9288 5.64756 30.7086 5.64756 31.4884 6.27968 32.1205 7.05944 32.1205L12.0011 32.1205C12.7808 32.1205 13.4129 31.4884 13.4129 30.7086 13.4129 29.9288 12.7808 29.2967 12.0011 29.2967Z" stroke="#0A6E4D" stroke-width="0.705944" fill="#0A6E4D" transform="matrix(1.00338 0 0 1 181 417.752)"/><path d="M17.1728 44.5705 13.6784 48.0649C13.1042 48.5926 13.0666 49.4858 13.5943 50.0599 14.1219 50.634 15.0151 50.6716 15.5892 50.144 15.618 50.1176 15.6456 50.09 15.672 50.0613L19.1664 46.5669C19.7273 46.0252 19.7428 45.1314 19.2011 44.5705 18.6594 44.0096 17.7656 43.9941 17.2047 44.5358 17.1929 44.5471 17.1813 44.5587 17.17 44.5705Z" stroke="#0A6E4D" stroke-width="0.705944" fill="#0A6E4D" transform="matrix(1.00338 0 0 1 181 417.752)"/><path d="M50.7045 44.303C50.1735 43.7319 49.2802 43.6994 48.709 44.2303 48.138 44.7613 48.1055 45.6546 48.6365 46.2257 48.6601 46.2512 48.6847 46.2757 48.7102 46.2994L52.2039 49.7931C52.7648 50.3348 53.6586 50.3193 54.2003 49.7584 54.7288 49.2113 54.7288 48.3438 54.2003 47.7967Z" stroke="#0A6E4D" stroke-width="0.705944" fill="#0A6E4D" transform="matrix(1.00338 0 0 1 181 417.752)"/><path d="M60.5347 29.2487 55.5931 29.2487C54.8133 29.2487 54.1812 29.8808 54.1812 30.6606 54.1812 31.4404 54.8133 32.0725 55.5931 32.0725L60.5347 32.0725C61.3145 32.0725 61.9466 31.4404 61.9466 30.6606 61.9466 29.8808 61.3145 29.2487 60.5347 29.2487Z" stroke="#0A6E4D" stroke-width="0.705944" fill="#0A6E4D" transform="matrix(1.00338 0 0 1 181 417.752)"/></g></svg>