<svg width="69" height="69" xmlns="http://www.w3.org/2000/svg" xmlns:xlink="http://www.w3.org/1999/xlink" xml:space="preserve" overflow="hidden"><g transform="translate(-605 -325)"><path d="M639.5 332.188C624.406 332.188 612.188 344.406 612.188 359.5 612.188 374.594 624.406 386.812 639.5 386.812 654.594 386.812 666.812 374.594 666.812 359.5 666.812 344.406 654.594 332.188 639.5 332.188ZM639.5 379.625C637.487 379.625 635.906 378.044 635.906 376.031 635.906 374.019 637.487 372.438 639.5 372.438 641.513 372.438 643.094 374.019 643.094 376.031 643.094 378.044 641.513 379.625 639.5 379.625ZM641.656 362.95C641.656 364.819 641.656 369.562 641.656 369.562L637.344 369.562 637.344 358.781 639.5 358.781C644.316 358.781 647.406 355.978 647.406 351.594 647.406 347.066 644.028 343.688 639.5 343.688 634.541 343.688 631.594 346.634 631.594 351.594L627.281 351.594C627.281 344.263 632.169 339.375 639.5 339.375 646.328 339.375 651.719 344.766 651.719 351.594 651.719 357.703 647.694 362.087 641.656 362.95Z"/></g></svg>