<svg width="69" height="69" xmlns="http://www.w3.org/2000/svg" xmlns:xlink="http://www.w3.org/1999/xlink" xml:space="preserve" overflow="hidden"><g transform="translate(-729 -417)"><path d="M763.5 424.188C748.406 424.188 736.188 436.406 736.188 451.5 736.188 466.594 748.406 478.812 763.5 478.812 778.594 478.812 790.812 466.594 790.812 451.5 790.812 436.406 778.594 424.188 763.5 424.188ZM763.5 471.625C761.487 471.625 759.906 470.044 759.906 468.031 759.906 466.019 761.487 464.438 763.5 464.438 765.513 464.438 767.094 466.019 767.094 468.031 767.094 470.044 765.513 471.625 763.5 471.625ZM765.656 454.95C765.656 456.819 765.656 461.562 765.656 461.562L761.344 461.562 761.344 450.781 763.5 450.781C768.316 450.781 771.406 447.978 771.406 443.594 771.406 439.066 768.028 435.688 763.5 435.688 758.541 435.688 755.594 438.634 755.594 443.594L751.281 443.594C751.281 436.263 756.169 431.375 763.5 431.375 770.328 431.375 775.719 436.766 775.719 443.594 775.719 449.703 771.694 454.087 765.656 454.95Z" fill="#B30077"/></g></svg>