<svg width="401" height="401" xmlns="http://www.w3.org/2000/svg" xmlns:xlink="http://www.w3.org/1999/xlink" xml:space="preserve" overflow="hidden"><g transform="translate(-464 -1365)"><path d="M742.5 1565.5 664.5 1487.5 586.5 1565.5 613.8 1592.8 645 1561.6 645 1643.5 684 1643.5 684 1561.6 715.2 1592.8 742.5 1565.5ZM859.5 1565.5C859.5 1592.47 854.381 1617.82 844.144 1641.55 833.906 1665.27 820.012 1685.91 802.462 1703.46 784.912 1721.01 764.275 1734.91 740.55 1745.14 716.825 1755.38 691.475 1760.5 664.5 1760.5 637.525 1760.5 612.175 1755.38 588.45 1745.14 564.725 1734.91 544.088 1721.01 526.538 1703.46 508.988 1685.91 495.094 1665.27 484.856 1641.55 474.619 1617.82 469.5 1592.47 469.5 1565.5 469.5 1538.53 474.619 1513.18 484.856 1489.45 495.094 1465.72 508.988 1445.09 526.538 1427.54 544.088 1409.99 564.725 1396.09 588.45 1385.86 612.175 1375.62 637.525 1370.5 664.5 1370.5 691.475 1370.5 716.825 1375.62 740.55 1385.86 764.275 1396.09 784.912 1409.99 802.462 1427.54 820.012 1445.09 833.906 1465.72 844.144 1489.45 854.381 1513.18 859.5 1538.53 859.5 1565.5ZM820.5 1565.5C820.5 1521.95 805.388 1485.06 775.163 1454.84 744.938 1424.61 708.05 1409.5 664.5 1409.5 620.95 1409.5 584.062 1424.61 553.837 1454.84 523.612 1485.06 508.5 1521.95 508.5 1565.5 508.5 1609.05 523.612 1645.94 553.837 1676.16 584.062 1706.39 620.95 1721.5 664.5 1721.5 708.05 1721.5 744.938 1706.39 775.163 1676.16 805.388 1645.94 820.5 1609.05 820.5 1565.5Z" stroke="#FFFFFF" stroke-width="11.4583" stroke-linecap="round" stroke-linejoin="round" stroke-miterlimit="10" fill="#FFFFFF" fill-rule="evenodd"/></g></svg>