<svg width="401" height="401" xmlns="http://www.w3.org/2000/svg" xmlns:xlink="http://www.w3.org/1999/xlink" xml:space="preserve" overflow="hidden"><g transform="translate(-464 -901)"><path d="M742.5 1101.5 664.5 1023.5 586.5 1101.5 613.8 1128.8 645 1097.6 645 1179.5 684 1179.5 684 1097.6 715.2 1128.8 742.5 1101.5ZM859.5 1101.5C859.5 1128.47 854.381 1153.82 844.144 1177.55 833.906 1201.27 820.012 1221.91 802.463 1239.46 784.913 1257.01 764.276 1270.91 740.55 1281.14 716.825 1291.38 691.475 1296.5 664.5 1296.5 637.525 1296.5 612.175 1291.38 588.45 1281.14 564.725 1270.91 544.088 1257.01 526.538 1239.46 508.988 1221.91 495.094 1201.27 484.856 1177.55 474.619 1153.82 469.5 1128.47 469.5 1101.5 469.5 1074.53 474.619 1049.18 484.856 1025.45 495.094 1001.72 508.988 981.087 526.538 963.537 544.088 945.988 564.725 932.094 588.45 921.856 612.175 911.618 637.525 906.5 664.5 906.5 691.475 906.5 716.825 911.618 740.55 921.856 764.276 932.094 784.913 945.988 802.463 963.537 820.012 981.087 833.906 1001.72 844.144 1025.45 854.381 1049.18 859.5 1074.53 859.5 1101.5ZM820.5 1101.5C820.5 1057.95 805.388 1021.06 775.163 990.837 744.938 960.612 708.05 945.5 664.5 945.5 620.95 945.5 584.063 960.612 553.838 990.837 523.612 1021.06 508.5 1057.95 508.5 1101.5 508.5 1145.05 523.612 1181.94 553.838 1212.16 584.063 1242.39 620.95 1257.5 664.5 1257.5 708.05 1257.5 744.938 1242.39 775.163 1212.16 805.388 1181.94 820.5 1145.05 820.5 1101.5Z" stroke="#000000" stroke-width="11.4583" stroke-linecap="round" stroke-linejoin="round" stroke-miterlimit="10" fill-rule="evenodd"/></g></svg>