<?xml version="1.0" encoding="UTF-8"?>
<svg id="Layer_2" data-name="Layer 2" xmlns="http://www.w3.org/2000/svg" viewBox="0 0 293.75 388.38">
  <defs>
    <style>
      .cls-1 {
        fill: #231f20;
        fill-rule: evenodd;
      }
    </style>
  </defs>
  <g id="Layer_1-2" data-name="Layer 1">
    <path class="cls-1" d="M0,207.11v-66.93l88.94-51.14c2.78,1.06,5.8,1.64,8.95,1.64,1.4,0,2.77-.11,4.11-.33L8.13,144.31l28.92,16.7c-7.12,15.45-11.09,32.64-11.09,50.74,0,65.77,52.38,119.4,117.67,121.41v55.22l-58.45-33.74C32.47,324.21,0,267.97,0,207.11h0ZM293.75,140.18v165.28l-143.62,82.92v-165.84l135.49-78.22-56.25-32.32c2.3-1.46,4.4-3.22,6.24-5.23l58.15,33.41h0ZM178.5,327.91v5.79c0,1.16.62,2.23,1.63,2.82,1.01.58,2.24.58,3.25,0l99.72-57.58c1.01-.58,1.62-1.65,1.62-2.82v-11.42c0-1.16-.62-2.23-1.62-2.82-1.01-.58-2.24-.58-3.25,0l-94.85,54.76v-5.79c0-1.16-.62-2.23-1.62-2.82-1.01-.58-2.24-.58-3.25,0l-9.89,5.71c-1.01.58-1.63,1.65-1.63,2.82v11.42c0,1.16.62,2.23,1.63,2.82,1.01.58,2.24.58,3.25,0l5.02-2.9h0ZM178.5,320.4l-3.39,1.96v-3.92l3.39-1.96v3.92h0ZM278.22,274.25l-93.22,53.82v-3.92l93.22-53.82v3.92h0ZM196.67,231.87c-9.92,5.47-17.97,19.13-17.97,30.49,0,6.57,2.6,11.11,6.37,13.35,3.77,2.24,9,2.33,14.74-.84,9.92-5.47,17.97-19.13,17.97-30.49,0-6.57-2.6-11.12-6.37-13.35-3.77-2.24-9-2.33-14.74.84h0ZM199.81,237.57c3.24-1.79,6.16-2.2,8.29-.94,2.13,1.27,3.18,4.03,3.18,7.76,0,9.23-6.54,20.35-14.61,24.8-3.25,1.79-6.16,2.2-8.29.94-2.13-1.27-3.18-4.03-3.18-7.76,0-9.23,6.55-20.35,14.61-24.8h0ZM254.77,198.32c-9.92,5.47-17.97,19.13-17.97,30.49,0,6.57,2.6,11.11,6.36,13.35,3.77,2.24,9,2.33,14.74-.84,9.92-5.47,17.97-19.13,17.97-30.49,0-6.57-2.6-11.11-6.36-13.35-3.77-2.24-9-2.33-14.74.84h0ZM257.92,204.01c3.24-1.79,6.16-2.2,8.29-.94,2.13,1.27,3.18,4.03,3.18,7.76,0,9.23-6.55,20.35-14.61,24.8-3.25,1.79-6.16,2.2-8.29.94-2.13-1.27-3.18-4.03-3.18-7.76,0-9.23,6.55-20.35,14.61-24.8h0ZM98.42,83.58c-.14,0-.27,0-.41,0-2.04,0-3.99-.33-5.83-.94-2.42-.81-4.62-2.1-6.47-3.77-3.75-3.37-6.12-8.26-6.12-13.7,0-10.16,8.25-18.42,18.41-18.42,8.86,0,16.27,6.27,18.02,14.61.26,1.23.39,2.5.39,3.8s-.13,2.5-.37,3.69c-.43,2.13-1.24,4.13-2.34,5.92-3.17,5.17-8.83,8.66-15.3,8.8h0ZM189.16,80.09c.31-1.34.73-2.64,1.25-3.89.84-2.02,1.94-3.91,3.26-5.63,1.37-1.78,2.98-3.37,4.77-4.72l1.65,2.14,2.42,1.5,2.89.55,2.89-.55,2.42-1.5,1.74-2.26.84-2.82.21-2.05c13.65.07,24.7,11.17,24.7,24.84,0,3.36-.67,6.57-1.89,9.5-.84,2.02-1.94,3.91-3.26,5.63-.81,1.05-1.7,2.04-2.67,2.95-2.08,1.96-4.49,3.56-7.14,4.71-3.03,1.32-6.38,2.05-9.89,2.05-12.72,0-23.21-9.58-24.67-21.9-.11-.96-.17-1.94-.17-2.94,0-1.93.22-3.8.64-5.61h0ZM174.83,112.99c-.3.36-.72.63-1.21.73l-15.55,3.37c-1.62.35-3.08,1.51-4.23,3.2-1.32,1.93-2.16,4.44-2.44,7.14l-2.3,22.76c-.11,1.11-1.05,1.96-2.17,1.96s-2.06-.85-2.17-1.96l-2.3-22.76c-.27-2.7-1.11-5.21-2.43-7.14-1.16-1.69-2.62-2.85-4.23-3.2l-15.55-3.37c-.37-.08-.69-.25-.96-.48-.47-.4-.76-1-.76-1.65,0-1.03.72-1.91,1.72-2.13l15.55-3.37c1.62-.35,3.08-1.51,4.23-3.2,1.32-1.93,2.16-4.44,2.43-7.14l2.3-22.76c.11-1.11,1.05-1.96,2.17-1.96s2.06.85,2.17,1.96l2.3,22.76c.27,2.7,1.12,5.21,2.44,7.14,1.16,1.69,2.61,2.85,4.23,3.2l15.55,3.37c1,.22,1.72,1.1,1.72,2.13,0,.53-.19,1.02-.51,1.4h0ZM76.49,183.78c-3.47,8.71-5.37,18.2-5.37,28.14,0,40.82,32.16,74.18,72.51,76.1v38.64c-61.7-2.01-111.17-52.72-111.17-114.9,0-16.93,3.67-33,10.25-47.48l33.79,19.51h0ZM82.19,187.07l61.44,35.47v58.97c-36.75-1.92-66.01-32.37-66.01-69.6,0-8.75,1.62-17.13,4.57-24.85h0ZM146.88,216.91l-84.84-48.98c11.71-22.69,32.2-40.13,56.96-47.82l15.14,3.28c.11.11.37.38.5.57.76,1.11,1.18,2.58,1.33,4.13l2.3,22.76.92,3.09,1.9,2.48,2.65,1.64,3.17.6,3.17-.6,2.65-1.64,1.9-2.48.91-3.09,2.3-22.76c.16-1.55.58-3.02,1.34-4.13.13-.19.38-.46.5-.57l15.3-3.32.39-.16c24.84,7.53,45.44,24.85,57.3,47.46l-85.8,49.54h0ZM206.82,62.25c-.07.73-.69,1.29-1.42,1.29-.59,0-1.1-.36-1.32-.88-.05-.13-.09-.26-.1-.4l-1.51-14.93c-.18-1.77-.73-3.42-1.6-4.69-.76-1.11-1.72-1.87-2.78-2.1l-10.2-2.21c-.66-.14-1.13-.73-1.13-1.4s.47-1.26,1.13-1.4l10.2-2.21c1.06-.23,2.02-.99,2.78-2.1.87-1.27,1.42-2.91,1.6-4.69l1.51-14.93c.07-.73.69-1.29,1.42-1.29s1.35.56,1.42,1.29l1.51,14.93c.18,1.77.73,3.42,1.6,4.69.76,1.11,1.71,1.87,2.78,2.1l10.2,2.21c.66.14,1.13.72,1.13,1.4s-.47,1.26-1.13,1.4l-10.2,2.21c-1.06.23-2.02.99-2.78,2.1-.87,1.27-1.42,2.91-1.6,4.69l-1.51,14.93h0ZM161.77.56c6.17,0,11.18,5.01,11.18,11.18s-5.01,11.18-11.18,11.18-11.18-5.01-11.18-11.18,5.01-11.18,11.18-11.18h0ZM113.27.85l1,9.84c.12,1.17.48,2.25,1.05,3.09.5.73,1.13,1.23,1.83,1.38l6.72,1.46c.43.09.74.48.74.92s-.31.83-.74.92l-6.72,1.46c-.7.15-1.33.65-1.83,1.38-.57.84-.93,1.92-1.05,3.09l-1,9.84c-.05.48-.45.85-.94.85s-.89-.37-.94-.85l-1-9.84c-.12-1.17-.48-2.25-1.05-3.09-.5-.73-1.13-1.23-1.83-1.38l-6.72-1.46c-.43-.09-.74-.48-.74-.92s.31-.83.74-.92l6.72-1.46c.7-.15,1.33-.65,1.83-1.38.57-.84.94-1.92,1.05-3.09l1-9.84c.05-.48.45-.85.94-.85s.89.37.94.85h0ZM181.84,84.7l-35.03-20.13-29.55,16.99c2.79-3.36,4.72-7.46,5.45-11.95l22.19-12.76c1.18-.68,2.63-.68,3.81,0l34.49,19.82c-.79,2.55-1.26,5.24-1.36,8.03h0Z"/>
  </g>
</svg>