<svg width="369" height="329" xmlns="http://www.w3.org/2000/svg" xmlns:xlink="http://www.w3.org/1999/xlink" xml:space="preserve" overflow="hidden"><g transform="translate(-778 -1338)"><path d="M790.5 1513.51 817.438 1540.38 837.962 1520.99 837.962 1654.4 941.744 1654.44 941.744 1551.03 983.256 1551.03 983.256 1654.46 1087.04 1654.5 1087.04 1520.81 1107.67 1540.28 1134.5 1513.51 962.5 1350.5ZM1078.74 1646.22 991.559 1646.18 991.559 1542.75 933.441 1542.75 933.441 1646.15 846.264 1646.12 846.264 1513.14 962.5 1403.32 1078.74 1512.98ZM817.596 1528.82 802.398 1513.68 962.5 1361.91 1122.6 1513.68 1107.5 1528.73 962.5 1391.92Z" stroke="#000000" stroke-width="25.2083" stroke-linecap="round" stroke-linejoin="round" stroke-miterlimit="10" fill-rule="evenodd"/></g></svg>