<svg width="369" height="329" xmlns="http://www.w3.org/2000/svg" xmlns:xlink="http://www.w3.org/1999/xlink" xml:space="preserve" overflow="hidden"><g transform="translate(-455 -195)"><path d="M467.5 370.51 494.438 397.38 514.962 377.99 514.962 511.4 618.744 511.44 618.744 408.03 660.256 408.03 660.256 511.46 764.04 511.5 764.04 377.81 784.67 397.28 811.5 370.51 639.5 207.5ZM755.74 503.22 668.559 503.18 668.559 399.75 610.441 399.75 610.441 503.15 523.264 503.12 523.264 370.14 639.5 260.32 755.74 369.98ZM494.596 385.82 479.398 370.68 639.5 218.91 799.6 370.68 784.5 385.73 639.5 248.92Z" stroke="#FFFFFF" stroke-width="25.2083" stroke-linecap="round" stroke-linejoin="round" stroke-miterlimit="10" fill="#FFFFFF" fill-rule="evenodd"/></g></svg>