<svg width="965" height="964" xmlns="http://www.w3.org/2000/svg" xmlns:xlink="http://www.w3.org/1999/xlink" xml:space="preserve" overflow="hidden"><g transform="translate(-2756 -1206)"><path d="M2951.37 1871C2905.23 1752.29 2875 1662.41 2902.45 1514 2929.89 1365.59 3021.35 1259.63 3085.1 1238 3144.87 1255.91 3241.83 1370.74 3269.56 1516.57 3297.3 1662.41 3272.14 1757.15 3220.56 1871L2951.37 1871Z" stroke="#ffffff" stroke-width="64.1667" stroke-linecap="round" stroke-linejoin="round" stroke-miterlimit="10" fill="none" fill-rule="evenodd"/><path d="M3004 1586.5C3004 1540.94 3040.94 1504 3086.5 1504 3132.06 1504 3169 1540.94 3169 1586.5 3169 1632.06 3132.06 1669 3086.5 1669 3040.94 1669 3004 1632.06 3004 1586.5Z" stroke="#ffffff" stroke-width="64.1667" stroke-miterlimit="8" fill="none" fill-rule="evenodd"/><path d="M2951 1410 3221.5 1410" stroke="#ffffff" stroke-width="64.1667" stroke-linecap="round" stroke-linejoin="round" stroke-miterlimit="10" fill="none" fill-rule="evenodd"/><rect x="2989" y="1871" width="195" height="91.0001" stroke="#ffffff" stroke-width="64.1667" stroke-linecap="round" stroke-linejoin="round" stroke-miterlimit="10" fill="none"/><path d="M3159.94 1962C3166.78 2001.29 3161.64 2042.03 3149.6 2071.36 3137.56 2100.69 3114.93 2118.94 3087.69 2138 3061.55 2118.82 3035.23 2101.55 3022.9 2072.22 3010.58 2042.89 3006.15 2000.75 3013.72 1962L3159.94 1962Z" stroke="#ffffff" stroke-width="64.1667" stroke-linecap="round" stroke-linejoin="round" stroke-miterlimit="10" fill="none" fill-rule="evenodd"/><path d="M2938.66 1859.01 2813.22 1946.16C2802.52 1926.31 2786.5 1886.23 2788.5 1829.27 2790.5 1772.32 2823.01 1725.79 2892.25 1676.63 2905.43 1786.98 2921.18 1797.64 2938.66 1859.01Z" stroke="#ffffff" stroke-width="64.1667" stroke-linecap="round" stroke-linejoin="round" stroke-miterlimit="10" fill="none" fill-rule="evenodd"/><path d="M0 152.55 7.58271 0C29.8397 3.64573 71.3603 15.4354 115.241 51.7964 159.121 88.1573 176.117 142.315 172.764 227.172 77.3299 170.221 59.2665 176.186 0 152.55Z" stroke="#ffffff" stroke-width="64.1667" stroke-linecap="round" stroke-linejoin="round" stroke-miterlimit="10" fill="none" fill-rule="evenodd" transform="matrix(0.610641 -0.791908 -0.791908 -0.610641 3355.51 1952.16)"/><path d="M0 0 220.866 0.000360892" stroke="#ffffff" stroke-width="64.1667" stroke-linecap="round" stroke-linejoin="round" stroke-miterlimit="10" fill="none" fill-rule="evenodd" transform="matrix(1 0 0 -1 3464 1916)"/><path d="M3369 1743.45C3459.44 1722.06 3378.83 1616.58 3428.98 1566.08 3479.13 1515.59 3551 1541.26 3567.01 1579.85 3583.02 1618.44 3572.47 1641.62 3573.9 1777" stroke="#ffffff" stroke-width="64.1667" stroke-linecap="round" stroke-linejoin="round" stroke-miterlimit="10" fill="none" fill-rule="evenodd"/><path d="M3460 1888.5C3460 1825.26 3511.26 1774 3574.5 1774L3574.5 1774C3637.74 1774 3689 1825.26 3689 1888.5L3689 2009.5C3689 2072.74 3637.74 2124 3574.5 2124L3574.5 2124C3511.26 2124 3460 2072.74 3460 2009.5Z" stroke="#ffffff" stroke-width="64.1667" stroke-miterlimit="8" fill="none" fill-rule="evenodd"/><path d="M3574 1697 3574 1916.07" stroke="#ffffff" stroke-width="64.1667" stroke-linecap="round" stroke-linejoin="round" stroke-miterlimit="10" fill="none" fill-rule="evenodd"/></g></svg>