<svg width="364" height="364" xmlns="http://www.w3.org/2000/svg" xmlns:xlink="http://www.w3.org/1999/xlink" xml:space="preserve" overflow="hidden"><g transform="translate(-1088 -920)"><path d="M1270 1277.5C1240.22 1277.5 1212.83 1270.72 1187.83 1257.16 1162.84 1243.6 1142.36 1225.51 1126.41 1202.91L1126.41 1245.59 1094.5 1245.59 1094.5 1149.86 1190.23 1149.86 1190.23 1181.77 1150.74 1181.77C1163.5 1200.92 1180.32 1216.34 1201.2 1228.04 1222.07 1239.74 1245 1245.59 1270 1245.59 1289.94 1245.59 1308.62 1241.8 1326.04 1234.22 1343.46 1226.64 1358.61 1216.41 1371.51 1203.51 1384.41 1190.61 1394.65 1175.46 1402.22 1158.04 1409.8 1140.62 1413.59 1121.94 1413.59 1102L1445.5 1102C1445.5 1126.2 1440.91 1148.93 1431.74 1170.21 1422.57 1191.48 1410 1210.09 1394.05 1226.05 1378.09 1242 1359.48 1254.57 1338.21 1263.74 1316.93 1272.91 1294.2 1277.5 1270 1277.5ZM1094.5 1102C1094.5 1077.8 1099.09 1055.07 1108.26 1033.79 1117.43 1012.52 1130 993.908 1145.95 977.953 1161.91 961.999 1180.52 949.434 1201.79 940.261 1223.07 931.087 1245.8 926.5 1270 926.5 1299.78 926.5 1327.17 933.281 1352.17 946.842 1377.16 960.403 1397.64 978.485 1413.59 1001.09L1413.59 958.409 1445.5 958.409 1445.5 1054.14 1349.77 1054.14 1349.77 1022.23 1389.26 1022.23C1376.5 1003.08 1359.68 987.659 1338.8 975.959 1317.93 964.259 1295 958.409 1270 958.409 1250.06 958.409 1231.38 962.198 1213.96 969.777 1196.54 977.355 1181.39 987.593 1168.49 1000.49 1155.59 1013.39 1145.36 1028.54 1137.78 1045.96 1130.2 1063.38 1126.41 1082.06 1126.41 1102L1094.5 1102ZM1270 1197.73C1275.58 1197.73 1280.3 1195.8 1284.16 1191.94 1288.02 1188.09 1289.94 1183.37 1289.94 1177.78 1289.94 1172.2 1288.02 1167.41 1284.16 1163.43 1280.3 1159.44 1275.58 1157.44 1270 1157.44 1264.42 1157.44 1259.7 1159.37 1255.84 1163.23 1251.98 1167.08 1250.06 1171.8 1250.06 1177.39 1250.06 1182.97 1251.98 1187.76 1255.84 1191.74 1259.7 1195.73 1264.42 1197.73 1270 1197.73ZM1255.64 1137.1 1284.76 1137.1C1284.76 1127.53 1285.89 1120.35 1288.15 1115.56 1290.41 1110.77 1295 1104.92 1301.91 1098.01 1311.22 1088.7 1317.4 1081.19 1320.46 1075.48 1323.51 1069.76 1325.04 1062.91 1325.04 1054.93 1325.04 1040.04 1319.73 1028.21 1309.09 1019.43 1298.45 1010.66 1285.42 1006.27 1270 1006.27 1256.7 1006.27 1245.27 1009.73 1235.7 1016.64 1226.12 1023.56 1219.21 1033.4 1214.96 1046.16L1241.28 1057.33C1243.14 1050.41 1246.67 1044.7 1251.85 1040.18 1257.04 1035.66 1263.09 1033.4 1270 1033.4 1277.18 1033.4 1283.23 1035.46 1288.15 1039.58 1293.07 1043.7 1295.53 1049.22 1295.53 1056.13 1295.53 1060.65 1294.46 1065.17 1292.34 1069.69 1290.21 1074.21 1285.69 1079.53 1278.78 1085.65 1270 1093.36 1263.95 1100.87 1260.63 1108.18 1257.3 1115.49 1255.64 1125.13 1255.64 1137.1Z" stroke="#000000" stroke-width="12.6042" stroke-linecap="round" stroke-linejoin="round" stroke-miterlimit="10" fill-rule="evenodd"/></g></svg>