<svg width="364" height="364" xmlns="http://www.w3.org/2000/svg" xmlns:xlink="http://www.w3.org/1999/xlink" xml:space="preserve" overflow="hidden"><g transform="translate(-1088 -1384)"><path d="M1270 1741.5C1240.22 1741.5 1212.83 1734.72 1187.83 1721.16 1162.84 1707.6 1142.36 1689.51 1126.41 1666.91L1126.41 1709.59 1094.5 1709.59 1094.5 1613.86 1190.23 1613.86 1190.23 1645.77 1150.74 1645.77C1163.5 1664.92 1180.32 1680.34 1201.2 1692.04 1222.07 1703.74 1245 1709.59 1270 1709.59 1289.94 1709.59 1308.62 1705.8 1326.04 1698.22 1343.46 1690.65 1358.61 1680.41 1371.51 1667.51 1384.41 1654.61 1394.65 1639.46 1402.22 1622.04 1409.8 1604.62 1413.59 1585.94 1413.59 1566L1445.5 1566C1445.5 1590.2 1440.91 1612.93 1431.74 1634.21 1422.57 1655.48 1410 1674.09 1394.05 1690.05 1378.09 1706 1359.48 1718.57 1338.21 1727.74 1316.93 1736.91 1294.2 1741.5 1270 1741.5ZM1094.5 1566C1094.5 1541.8 1099.09 1519.07 1108.26 1497.79 1117.43 1476.52 1130 1457.91 1145.95 1441.95 1161.91 1426 1180.52 1413.43 1201.79 1404.26 1223.07 1395.09 1245.8 1390.5 1270 1390.5 1299.78 1390.5 1327.17 1397.28 1352.17 1410.84 1377.16 1424.4 1397.64 1442.49 1413.59 1465.09L1413.59 1422.41 1445.5 1422.41 1445.5 1518.14 1349.77 1518.14 1349.77 1486.23 1389.26 1486.23C1376.5 1467.08 1359.68 1451.66 1338.8 1439.96 1317.93 1428.26 1295 1422.41 1270 1422.41 1250.06 1422.41 1231.38 1426.2 1213.96 1433.78 1196.54 1441.36 1181.39 1451.59 1168.49 1464.49 1155.59 1477.39 1145.36 1492.54 1137.78 1509.96 1130.2 1527.38 1126.41 1546.06 1126.41 1566L1094.5 1566ZM1270 1661.73C1275.58 1661.73 1280.3 1659.8 1284.16 1655.94 1288.02 1652.09 1289.94 1647.37 1289.94 1641.78 1289.94 1636.2 1288.02 1631.41 1284.16 1627.43 1280.3 1623.44 1275.58 1621.44 1270 1621.44 1264.42 1621.44 1259.7 1623.37 1255.84 1627.23 1251.98 1631.08 1250.06 1635.8 1250.06 1641.39 1250.06 1646.97 1251.98 1651.76 1255.84 1655.74 1259.7 1659.73 1264.42 1661.73 1270 1661.73ZM1255.64 1601.1 1284.76 1601.1C1284.76 1591.53 1285.89 1584.35 1288.15 1579.56 1290.41 1574.78 1295 1568.92 1301.91 1562.01 1311.22 1552.7 1317.4 1545.19 1320.46 1539.48 1323.51 1533.76 1325.04 1526.91 1325.04 1518.93 1325.04 1504.04 1319.73 1492.21 1309.09 1483.44 1298.45 1474.66 1285.42 1470.27 1270 1470.27 1256.7 1470.27 1245.27 1473.73 1235.7 1480.64 1226.12 1487.56 1219.21 1497.4 1214.96 1510.16L1241.28 1521.33C1243.14 1514.41 1246.67 1508.7 1251.85 1504.18 1257.04 1499.66 1263.09 1497.4 1270 1497.4 1277.18 1497.4 1283.23 1499.46 1288.15 1503.58 1293.07 1507.7 1295.53 1513.22 1295.53 1520.13 1295.53 1524.65 1294.46 1529.17 1292.34 1533.69 1290.21 1538.21 1285.69 1543.53 1278.78 1549.65 1270 1557.36 1263.95 1564.87 1260.63 1572.18 1257.3 1579.49 1255.64 1589.13 1255.64 1601.1Z" stroke="#FFFFFF" stroke-width="12.6042" stroke-linecap="round" stroke-linejoin="round" stroke-miterlimit="10" fill="#FFFFFF" fill-rule="evenodd"/></g></svg>