<svg width="338" height="338" xmlns="http://www.w3.org/2000/svg" xmlns:xlink="http://www.w3.org/1999/xlink" xml:space="preserve" overflow="hidden"><g transform="translate(-1641 -933)"><path d="M1810 1183.25 1708.44 1081.69 1736.88 1052.23 1789.69 1105.05 1789.69 939.5 1830.31 939.5 1830.31 1105.05 1883.13 1052.23 1911.56 1081.69 1810 1183.25ZM1688.12 1264.5C1676.95 1264.5 1667.39 1260.52 1659.43 1252.57 1651.48 1244.61 1647.5 1235.05 1647.5 1223.88L1647.5 1162.94 1688.12 1162.94 1688.12 1223.88 1931.88 1223.88 1931.88 1162.94 1972.5 1162.94 1972.5 1223.88C1972.5 1235.05 1968.52 1244.61 1960.57 1252.57 1952.61 1260.52 1943.05 1264.5 1931.88 1264.5L1688.12 1264.5Z" stroke="#000000" stroke-width="12.6042" stroke-linecap="round" stroke-linejoin="round" stroke-miterlimit="10" fill-rule="evenodd"/></g></svg>