<svg width="338" height="338" xmlns="http://www.w3.org/2000/svg" xmlns:xlink="http://www.w3.org/1999/xlink" xml:space="preserve" overflow="hidden"><g transform="translate(-1641 -1397)"><path d="M1810 1647.25 1708.44 1545.69 1736.88 1516.23 1789.69 1569.05 1789.69 1403.5 1830.31 1403.5 1830.31 1569.05 1883.13 1516.23 1911.56 1545.69 1810 1647.25ZM1688.12 1728.5C1676.95 1728.5 1667.39 1724.52 1659.43 1716.57 1651.48 1708.61 1647.5 1699.05 1647.5 1687.88L1647.5 1626.94 1688.12 1626.94 1688.12 1687.88 1931.88 1687.88 1931.88 1626.94 1972.5 1626.94 1972.5 1687.88C1972.5 1699.05 1968.52 1708.61 1960.57 1716.57 1952.61 1724.52 1943.05 1728.5 1931.88 1728.5L1688.12 1728.5Z" stroke="#FFFFFF" stroke-width="12.6042" stroke-linecap="round" stroke-linejoin="round" stroke-miterlimit="10" fill="#FFFFFF" fill-rule="evenodd"/></g></svg>