<svg width="323" height="183" xmlns="http://www.w3.org/2000/svg" xmlns:xlink="http://www.w3.org/1999/xlink" xml:space="preserve" overflow="hidden"><g transform="translate(-2797 -1146)"><path d="M2811 1237.5C2811 1194.7 2845.7 1160 2888.5 1160L3028.5 1160C3071.3 1160 3106 1194.7 3106 1237.5L3106 1237.5C3106 1280.3 3071.3 1315 3028.5 1315L2888.5 1315C2845.7 1315 2811 1280.3 2811 1237.5Z" stroke="#000000" stroke-width="27.5" stroke-miterlimit="8" fill="none" fill-rule="evenodd"/><path d="M2841 1237.5C2841 1212.37 2861.37 1192 2886.5 1192 2911.63 1192 2932 1212.37 2932 1237.5 2932 1262.63 2911.63 1283 2886.5 1283 2861.37 1283 2841 1262.63 2841 1237.5Z" fill="#C280FF" fill-rule="evenodd"/></g></svg>