<svg width="322" height="183" xmlns="http://www.w3.org/2000/svg" xmlns:xlink="http://www.w3.org/1999/xlink" xml:space="preserve" overflow="hidden"><g transform="translate(-2280 -690)"><path d="M2294 781.5C2294 738.698 2328.7 704 2371.5 704L2510.5 704C2553.3 704 2588 738.698 2588 781.5L2588 781.5C2588 824.302 2553.3 859 2510.5 859L2371.5 859C2328.7 859 2294 824.302 2294 781.5Z" stroke="#000000" stroke-width="27.5" stroke-miterlimit="8" fill="#CEFAEC" fill-rule="evenodd"/><path d="M2468 781.5C2468 756.371 2488.37 736 2513.5 736 2538.63 736 2559 756.371 2559 781.5 2559 806.629 2538.63 827 2513.5 827 2488.37 827 2468 806.629 2468 781.5Z" fill="#14DC9A" fill-rule="evenodd"/></g></svg>