<svg width="323" height="183" xmlns="http://www.w3.org/2000/svg" xmlns:xlink="http://www.w3.org/1999/xlink" xml:space="preserve" overflow="hidden"><g transform="translate(-561 -1004)"><path d="M575 1095.5C575 1052.7 609.698 1018 652.5 1018L792.5 1018C835.302 1018 870 1052.7 870 1095.5L870 1095.5C870 1138.3 835.302 1173 792.5 1173L652.5 1173C609.698 1173 575 1138.3 575 1095.5Z" stroke="#000000" stroke-width="27.5" stroke-miterlimit="8" fill="#CCF6FF" fill-rule="evenodd"/><path d="M749 1095.5C749 1070.37 769.371 1050 794.5 1050 819.629 1050 840 1070.37 840 1095.5 840 1120.63 819.629 1141 794.5 1141 769.371 1141 749 1120.63 749 1095.5Z" fill="#00D2FF" fill-rule="evenodd"/></g></svg>