<svg width="323" height="183" xmlns="http://www.w3.org/2000/svg" xmlns:xlink="http://www.w3.org/1999/xlink" xml:space="preserve" overflow="hidden"><g transform="translate(-2797 -894)"><path d="M2811 985.5C2811 942.698 2845.7 908 2888.5 908L3028.5 908C3071.3 908 3106 942.698 3106 985.5L3106 985.5C3106 1028.3 3071.3 1063 3028.5 1063L2888.5 1063C2845.7 1063 2811 1028.3 2811 985.5Z" stroke="#000000" stroke-width="27.5" stroke-miterlimit="8" fill="#F3E6FF" fill-rule="evenodd"/><path d="M2985 985.5C2985 960.371 3005.37 940 3030.5 940 3055.63 940 3076 960.371 3076 985.5 3076 1010.63 3055.63 1031 3030.5 1031 3005.37 1031 2985 1010.63 2985 985.5Z" fill="#C280FF" fill-rule="evenodd"/></g></svg>