<svg width="322" height="183" xmlns="http://www.w3.org/2000/svg" xmlns:xlink="http://www.w3.org/1999/xlink" xml:space="preserve" overflow="hidden"><g transform="translate(-2280 -942)"><path d="M2294 1033.5C2294 990.698 2328.7 956 2371.5 956L2510.5 956C2553.3 956 2588 990.698 2588 1033.5L2588 1033.5C2588 1076.3 2553.3 1111 2510.5 1111L2371.5 1111C2328.7 1111 2294 1076.3 2294 1033.5Z" stroke="#000000" stroke-width="27.5" stroke-miterlimit="8" fill="none" fill-rule="evenodd"/><path d="M2324 1033.5C2324 1008.37 2344.37 988 2369.5 988 2394.63 988 2415 1008.37 2415 1033.5 2415 1058.63 2394.63 1079 2369.5 1079 2344.37 1079 2324 1058.63 2324 1033.5Z" fill="#14DC9A" fill-rule="evenodd"/></g></svg>