<svg width="323" height="183" xmlns="http://www.w3.org/2000/svg" xmlns:xlink="http://www.w3.org/1999/xlink" xml:space="preserve" overflow="hidden"><g transform="translate(-561 -1256)"><path d="M575 1347.5C575 1304.7 609.698 1270 652.5 1270L792.5 1270C835.302 1270 870 1304.7 870 1347.5L870 1347.5C870 1390.3 835.302 1425 792.5 1425L652.5 1425C609.698 1425 575 1390.3 575 1347.5Z" stroke="#000000" stroke-width="27.5" stroke-miterlimit="8" fill="none" fill-rule="evenodd"/><path d="M606 1347.5C606 1322.37 626.371 1302 651.5 1302 676.629 1302 697 1322.37 697 1347.5 697 1372.63 676.629 1393 651.5 1393 626.371 1393 606 1372.63 606 1347.5Z" fill="#00D2FF" fill-rule="evenodd"/></g></svg>